<svg viewBox="0 0 24 24" fill="none" xmlns="http://www.w3.org/2000/svg"><path d="M11.05 3.5 4.2 9.1A2.4 2.4 0 0 0 3.3 11v8.1A1.9 1.9 0 0 0 5.2 21h13.6a1.9 1.9 0 0 0 1.9-1.9V11a2.4 2.4 0 0 0-.9-1.9L12.95 3.5a1.5 1.5 0 0 0-1.9 0Z" fill="#B33A4C"/><path d="M11.45 4.05 5.2 9.2" fill="none" stroke="#FFFFFF" stroke-opacity=".55" stroke-width=".85" stroke-linecap="round"/><path d="M9.9 21v-4.7a2.1 2.1 0 0 1 2.1-2.1 2.1 2.1 0 0 1 2.1 2.1V21Z" fill="#F7E6E2"/><path d="M 16.4 7.243 l -0.189 -0.172 C 15.542 6.464 15.1 6.064 15.1 5.572 15.1 5.172 15.415 4.857 15.815 4.857 c 0.226 0.0 0.443 0.105 0.585 0.272 C 16.542 4.963 16.759 4.857 16.985 4.857 17.385 4.857 17.7 5.172 17.7 5.572 c 0.0 0.491 -0.442 0.892 -1.112 1.5 L 16.4 7.243 z" fill="#C9A84C"/></svg>