<svg xmlns="http://www.w3.org/2000/svg" viewBox="0 0 24 24" width="26" height="26" role="img" aria-label="부부연구소" fill="none">
  <title>부부연구소</title>
  <path d="M11.05 3.5 4.2 9.1A2.4 2.4 0 0 0 3.3 11v8.1A1.9 1.9 0 0 0 5.2 21h13.6a1.9 1.9 0 0 0 1.9-1.9V11a2.4 2.4 0 0 0-.9-1.9L12.95 3.5a1.5 1.5 0 0 0-1.9 0Z" fill="#B33A4C"/>
  <path d="M11.45 4.05 5.2 9.2" fill="none" stroke="#FFFFFF" stroke-opacity=".55" stroke-width=".85" stroke-linecap="round"/>
  <path d="M9.9 21v-4.7a2.1 2.1 0 0 1 2.1-2.1 2.1 2.1 0 0 1 2.1 2.1V21Z" fill="#F7E6E2"/>
  <circle cx="16.4" cy="6.15" r="1.1" fill="#C9A84C"/>
</svg>
